<?xml version="1.0" encoding="iso-8859-1"?>
<!-- Generator: Adobe Illustrator 19.0.0, SVG Export Plug-In . SVG Version: 6.00 Build 0)  -->
<svg version="1.1" id="Capa_1" xmlns="http://www.w3.org/2000/svg" xmlns:xlink="http://www.w3.org/1999/xlink" x="0px" y="0px"
	 viewBox="0 0 512 512" style="enable-background:new 0 0 512 512;" xml:space="preserve">
<g>
	<g>
		<path d="M469.333,149.333H42.667C19.146,149.333,0,168.479,0,192v128c0,23.521,19.146,42.667,42.667,42.667h426.667
			C492.854,362.667,512,343.521,512,320V192C512,168.479,492.854,149.333,469.333,149.333z M96,309.333
			c-29.417,0-53.333-23.917-53.333-53.333S66.583,202.667,96,202.667s53.333,23.917,53.333,53.333S125.417,309.333,96,309.333z
			 M448,298.667h-64v-32c0-5.896-4.771-10.667-10.667-10.667c-5.896,0-10.667,4.771-10.667,10.667v32h-21.333v-32
			c0-5.896-4.771-10.667-10.667-10.667c-5.896,0-10.667,4.771-10.667,10.667v32h-21.333v-53.333c0-5.896-4.771-10.667-10.667-10.667
			s-10.667,4.771-10.667,10.667v53.333H256v-32c0-5.896-4.771-10.667-10.667-10.667c-5.896,0-10.667,4.771-10.667,10.667v32h-45.188
			c7.729-11.688,13.188-26.958,13.188-42.667s-5.458-30.979-13.188-42.667H448V298.667z"/>
	</g>
</g>
<g>
</g>
<g>
</g>
<g>
</g>
<g>
</g>
<g>
</g>
<g>
</g>
<g>
</g>
<g>
</g>
<g>
</g>
<g>
</g>
<g>
</g>
<g>
</g>
<g>
</g>
<g>
</g>
<g>
</g>
</svg>
