<svg id="Layer_1" enable-background="new 0 0 512 512" height="512" viewBox="0 0 512 512" width="512" xmlns="http://www.w3.org/2000/svg"><ellipse cx="114.927" cy="464.379" rx="47.621" ry="47.621" transform="matrix(.383 -.924 .924 .383 -358.084 392.847)"/><circle cx="377.411" cy="464.379" r="47.621"/><path d="m505.502 369.521c-34.083-28.29-79.125-42.692-137.59-43.965-105.421-71.271-97.889-66.768-102.208-67.688-68.451-14.577-142.551 12.443-206.442 41.417h-12.28c-25.512 0-46.267 20.755-46.267 46.267v72.559c0 21.493 14.732 39.608 34.628 44.782.797-43.218 36.178-78.136 79.583-78.136 43.903 0 79.621 35.718 79.621 79.621h103.243c0-43.903 35.718-79.621 79.621-79.621s79.621 35.718 79.621 79.621h5.687c6.11 0 11.686-3.479 14.372-8.967l32.565-66.546c3.245-6.634 1.529-14.627-4.154-19.344z"/><path d="m356.968 83.912h-36.892c-6.306 0-10.866-6.027-9.15-12.095l15.052-53.248c2.634-9.317-4.366-18.569-14.047-18.569h-54.386c-6.533 0-12.27 4.34-14.047 10.627l-30.981 109.6c-1.715 6.069 2.844 12.095 9.15 12.095h25.67c6.093 0 10.613 5.649 9.277 11.594l-15.97 71.062c-1.421 6.322 6.427 10.461 10.842 5.718l112.442-120.796c5.661-6.082 1.348-15.988-6.96-15.988z"/></svg>