<?xml version="1.0" encoding="iso-8859-1"?>
<!-- Generator: Adobe Illustrator 19.0.0, SVG Export Plug-In . SVG Version: 6.00 Build 0)  -->
<svg version="1.1" id="Capa_1" xmlns="http://www.w3.org/2000/svg" xmlns:xlink="http://www.w3.org/1999/xlink" x="0px" y="0px"
	 viewBox="0 0 512 512" style="enable-background:new 0 0 512 512;" xml:space="preserve">
<g>
	<g>
		<path d="M256,0C114.844,0,0,114.844,0,256s114.844,256,256,256s256-114.844,256-256S397.156,0,256,0z M256,64
			c84.388,0,156.083,54.806,181.763,130.634C390.46,179.306,325.771,170.667,256,170.667c-69.78,0-134.469,8.646-181.764,23.971
			C99.914,118.807,171.611,64,256,64z M298.667,256c0,23.531-19.135,42.667-42.667,42.667S213.333,279.531,213.333,256
			s19.135-42.667,42.667-42.667S298.667,232.469,298.667,256z M146.906,330.281l-23.628,64.125
			c-28.549-27.388-48.622-63.431-56.008-103.922l29.115-10.724c14.354-5.281,30.615-1.719,41.427,9.094
			C148.615,299.667,152.188,315.938,146.906,330.281z M256,448c-20.984,0-41.137-3.505-60.053-9.756l24.335-52.723
			c6.396-13.885,20.417-22.854,35.719-22.854c15.292,0,29.323,8.969,35.719,22.854l24.335,52.723
			C297.137,444.495,276.984,448,256,448z M388.717,394.41l-23.624-64.129c-5.281-14.344-1.719-30.615,9.094-41.427
			c10.823-10.802,27.063-14.396,41.427-9.094l29.113,10.73C437.341,330.98,417.268,367.025,388.717,394.41z"/>
	</g>
</g>
<g>
</g>
<g>
</g>
<g>
</g>
<g>
</g>
<g>
</g>
<g>
</g>
<g>
</g>
<g>
</g>
<g>
</g>
<g>
</g>
<g>
</g>
<g>
</g>
<g>
</g>
<g>
</g>
<g>
</g>
</svg>
