<?xml version="1.0" encoding="iso-8859-1"?>
<!-- Generator: Adobe Illustrator 19.0.0, SVG Export Plug-In . SVG Version: 6.00 Build 0)  -->
<svg version="1.1" id="Capa_1" xmlns="http://www.w3.org/2000/svg" xmlns:xlink="http://www.w3.org/1999/xlink" x="0px" y="0px"
	 viewBox="0 0 512 512" style="enable-background:new 0 0 512 512;" xml:space="preserve">
<g>
	<g>
		<g>
			<path d="M437.896,457.073C485.167,409.25,512,344.552,512,277.333c0-73.816-31.587-140.238-81.738-187.003
				C426.408,93.848,421.424,96,416,96c-11.771,0-21.333-9.573-21.333-21.333c0-3.717,1.258-7.168,3.059-10.349
				C357.113,37.208,308.389,21.333,256,21.333c-146.521,0-256,152.052-256,288c0,70.302,28.833,106.333,73.833,147.979
				C67.729,463.115,64,471.219,64,480c0,17.646,14.354,32,32,32h320c17.646,0,32-14.354,32-32
				C448,471.094,444.167,462.896,437.896,457.073z M266.667,426.126v-20.793c5.896,0,10.667-4.771,10.667-10.667
				S272.563,384,266.667,384h-21.333c-5.896,0-10.667,4.771-10.667,10.667s4.771,10.667,10.667,10.667v20.793
				c-77.355-5.509-138.667-70.051-138.667-148.793C106.667,194.99,173.667,128,256,128s149.333,66.99,149.333,149.333
				C405.333,356.076,344.022,420.617,266.667,426.126z"/>
			<path d="M429.792,60.875c2.083,2.083,4.813,3.125,7.542,3.125c2.729,0,5.458-1.042,7.542-3.125l21.333-21.333
				c4.167-4.167,4.167-10.917,0-15.083c-4.167-4.167-10.917-4.167-15.083,0l-21.333,21.333
				C425.625,49.958,425.625,56.708,429.792,60.875z"/>
			<path d="M448,74.667c0,5.896,4.771,10.667,10.667,10.667H480c5.896,0,10.667-4.771,10.667-10.667
				C490.667,68.771,485.896,64,480,64h-21.333C452.771,64,448,68.771,448,74.667z"/>
			<path d="M416,42.667c5.896,0,10.667-4.771,10.667-10.667V10.667C426.667,4.771,421.896,0,416,0
				c-5.896,0-10.667,4.771-10.667,10.667V32C405.333,37.896,410.104,42.667,416,42.667z"/>
		</g>
	</g>
</g>
<g>
</g>
<g>
</g>
<g>
</g>
<g>
</g>
<g>
</g>
<g>
</g>
<g>
</g>
<g>
</g>
<g>
</g>
<g>
</g>
<g>
</g>
<g>
</g>
<g>
</g>
<g>
</g>
<g>
</g>
</svg>
